<?xml version="1.0" encoding="iso-8859-1"?>
<!-- Generator: Adobe Illustrator 19.0.0, SVG Export Plug-In . SVG Version: 6.00 Build 0)  -->
<svg version="1.1" id="Capa_1" xmlns="http://www.w3.org/2000/svg" xmlns:xlink="http://www.w3.org/1999/xlink" x="0px" y="0px"
	 viewBox="0 0 512 512" style="enable-background:new 0 0 512 512;" xml:space="preserve">
<path style="fill:#E1F1FA;" d="M512,150v317c0,24.901-20.099,45-45,45H45c-24.901,0-45-20.099-45-45V150l49.2-30h439.399L512,150z"
	/>
<path style="fill:#BFE1FF;" d="M512,150v317c0,24.901-20.099,45-45,45H256V120h232.599L512,150z"/>
<path style="fill:#0053BF;" d="M512,45v105H150l-30-27.001V30.3L150,0h317C491.901,0,512,20.099,512,45z"/>
<path style="fill:#05377F;" d="M512,45v105H256V0h211C491.901,0,512,20.099,512,45z"/>
<path style="fill:#B674F2;" d="M150,150H0V45C0,20.186,20.186,0,45,0h105V150z"/>
<g>
	<path style="fill:#BFE1FF;" d="M346,90h-30c-8.291,0-15-6.709-15-15s6.709-15,15-15h30c8.291,0,15,6.709,15,15S354.291,90,346,90z"
		/>
	<path style="fill:#BFE1FF;" d="M271,75c0,8.401-6.599,15-15,15h-30c-8.401,0-15-6.599-15-15s6.599-15,15-15h30
		C264.401,60,271,66.599,271,75z"/>
	<path style="fill:#BFE1FF;" d="M256,90V60c8.401,0,15,6.599,15,15S264.401,90,256,90z"/>
	<path style="fill:#BFE1FF;" d="M437,90h-30c-8.291,0-15-6.709-15-15s6.709-15,15-15h30c8.291,0,15,6.709,15,15S445.291,90,437,90z"
		/>
</g>
<path style="fill:#65B1FC;" d="M286,180H75c-8.401,0-15,6.599-15,15v60c0,8.399,6.599,15,15,15h211c8.401,0,15-6.601,15-15v-60
	C301,186.599,294.401,180,286,180z"/>
<path style="fill:#1689FC;" d="M437,452h-91c-8.291,0-15-6.709-15-15V195c0-8.291,6.709-15,15-15h91c8.291,0,15,6.709,15,15v242
	C452,445.291,445.291,452,437,452z"/>
<path style="fill:#65B1FC;" d="M286,301H75c-8.401,0-15,6.599-15,15v121c0,8.399,6.599,15,15,15h211c8.401,0,15-6.601,15-15V316
	C301,307.599,294.401,301,286,301z"/>
<g>
	<path style="fill:#1689FC;" d="M301,195v60c0,8.399-6.599,15-15,15h-30v-90h30C294.401,180,301,186.599,301,195z"/>
	<path style="fill:#1689FC;" d="M301,316v121c0,8.399-6.599,15-15,15h-30V301h30C294.401,301,301,307.599,301,316z"/>
</g>
<g>
</g>
<g>
</g>
<g>
</g>
<g>
</g>
<g>
</g>
<g>
</g>
<g>
</g>
<g>
</g>
<g>
</g>
<g>
</g>
<g>
</g>
<g>
</g>
<g>
</g>
<g>
</g>
<g>
</g>
</svg>
