<?xml version="1.0" encoding="iso-8859-1"?>
<!-- Generator: Adobe Illustrator 19.0.0, SVG Export Plug-In . SVG Version: 6.00 Build 0)  -->
<svg version="1.1" id="Capa_1" xmlns="http://www.w3.org/2000/svg" xmlns:xlink="http://www.w3.org/1999/xlink" x="0px" y="0px"
	 viewBox="0 0 512 512" style="enable-background:new 0 0 512 512;" xml:space="preserve">
<path style="fill:#FF281D;" d="M346,0c-6.301,0-11.7,3.9-14.099,9.6c-2.1,5.999-0.601,12.299,4.199,16.5
	C336.099,26.4,361,49.2,361,75c0,4.499-0.601,9-2.401,14.399c-6,17.701-21.299,21.899-32.699,20.099
	C314.5,107.399,301,98.699,301,80.4V47.399C301,36.9,291.7,29.4,283.001,30c-9.6,0.3-18.6,2.399-27.001,6
	c-26.7,11.699-45,38.099-45,69c0,8.399-6.599,15-15,15s-15-6.601-15-15C181,47.1,133.9,0,76,0c-6,0-11.4,3.6-13.801,9.3
	C59.801,15,61,21.299,65.501,25.499l18.6,18.6c16.8,17.1,16.8,44.7,0,61.8C69.101,120.599,61,140.4,61,161.4
	c0,43.2,35.4,78.6,78.6,78.6H346c57.9,0,105-47.1,105-105v-30C451,47.1,403.9,0,346,0z"/>
<path style="fill:#B80000;" d="M451,105v30c0,57.9-47.1,105-105,105h-90V36c8.401-3.602,17.401-5.7,27.001-6
	C291.7,29.399,301,36.899,301,47.399V80.4c0,18.3,13.5,26.999,24.901,29.099c11.4,1.8,26.699-2.399,32.699-20.099
	c1.799-5.4,2.4-9.901,2.4-14.4c0-25.8-24.901-48.6-24.901-48.9C331.3,21.9,329.8,15.599,331.9,9.6C334.3,3.9,339.699,0,346,0
	C403.9,0,451,47.1,451,105z"/>
<rect x="17.701" y="227.7" style="fill:#FEA832;" width="478.4" height="272.9"/>
<rect x="256" y="227.7" style="fill:#FFA008;" width="240.1" height="272.9"/>
<path style="fill:#BF6015;" d="M497,210H15c-8.401,0-15,6.599-15,15v272c0,8.399,6.599,15,15,15h482c8.401,0,15-6.601,15-15V225
	C512,216.599,505.401,210,497,210z M181,240h150v61H181V240z M30,240h121v61H30V240z M30,331h211v60H30V331z M151,482H30v-61h121
	V482z M331,482H181v-61h150V482z M482,482H361v-61h121V482z M482,391H271v-60h211V391z M482,301H361v-61h121V301z"/>
<path style="fill:#994C10;" d="M497,210H256v30h75v61h-75v120h75v61h-75v30h241c8.401,0,15-6.601,15-15V225
	C512,216.599,505.401,210,497,210z M482,482H361v-61h121V482z M482,391H271v-60h211V391z M482,301H361v-61h121V301z"/>
<g>
</g>
<g>
</g>
<g>
</g>
<g>
</g>
<g>
</g>
<g>
</g>
<g>
</g>
<g>
</g>
<g>
</g>
<g>
</g>
<g>
</g>
<g>
</g>
<g>
</g>
<g>
</g>
<g>
</g>
</svg>
