<?xml version="1.0" encoding="iso-8859-1"?>
<!-- Generator: Adobe Illustrator 19.0.0, SVG Export Plug-In . SVG Version: 6.00 Build 0)  -->
<svg version="1.1" id="Capa_1" xmlns="http://www.w3.org/2000/svg" xmlns:xlink="http://www.w3.org/1999/xlink" x="0px" y="0px"
	 viewBox="0 0 512.001 512.001" style="enable-background:new 0 0 512.001 512.001;" xml:space="preserve">
<path style="fill:#B674F2;" d="M490.401,298.601l-31.5-19.501c-2.401-1.199-5.099-2.1-7.8-2.1h-390.2c-2.701,0-5.4,0.901-7.8,2.1
	l-31.5,19.501c-28.801,17.401-28.801,59.399,0,76.8l210.999,129.9c7.202,4.499,15.3,6.599,23.401,6.599s16.199-2.1,23.401-6.599
	l210.999-129.9C519.201,358,519.201,316.002,490.401,298.601z"/>
<path style="fill:#8F4CD6;" d="M490.401,375.401l-210.999,129.9c-7.202,4.499-15.3,6.599-23.401,6.599V277h195.1
	c2.701,0,5.4,0.901,7.8,2.1l31.5,19.501C519.201,316.002,519.201,358,490.401,375.401z"/>
<path style="fill:#FF281D;" d="M490.401,208.601l-31.5-19.501c-2.401-1.199-5.099-2.1-7.8-2.1h-390.2c-2.701,0-5.4,0.901-7.8,2.1
	l-31.5,19.501c-28.801,17.401-28.801,59.399,0,76.8l210.999,129.9c7.202,4.499,15.3,6.599,23.401,6.599s16.199-2.1,23.401-6.599
	l210.999-129.9C519.201,268,519.201,226.002,490.401,208.601z"/>
<path style="fill:#B80000;" d="M490.401,285.401l-210.999,129.9c-7.202,4.499-15.3,6.599-23.401,6.599V187h195.1
	c2.701,0,5.4,0.901,7.8,2.1l31.5,19.501C519.201,226.002,519.201,268,490.401,285.401z"/>
<path style="fill:#FFDA45;" d="M490.401,136.601L279.402,6.701c-7.202-4.499-15.3-6.6-23.401-6.6c-8.101,0-16.199,2.1-23.401,6.599
	L21.601,136.601c-28.801,17.401-28.801,59.399,0,76.8l210.999,129.9c7.202,4.499,15.3,6.599,23.401,6.599s16.199-2.1,23.401-6.599
	l210.999-129.9C519.201,196,519.201,154.002,490.401,136.601z"/>
<path style="fill:#FFBC36;" d="M490.401,213.401l-210.999,129.9c-7.202,4.499-15.3,6.599-23.401,6.599V0.101
	c8.101,0,16.199,2.1,23.401,6.599l210.999,129.901C519.201,154.002,519.201,196,490.401,213.401z"/>
<g>
</g>
<g>
</g>
<g>
</g>
<g>
</g>
<g>
</g>
<g>
</g>
<g>
</g>
<g>
</g>
<g>
</g>
<g>
</g>
<g>
</g>
<g>
</g>
<g>
</g>
<g>
</g>
<g>
</g>
</svg>
