<svg id="Layer_1" enable-background="new 0 0 496.826 496.826" height="512" viewBox="0 0 496.826 496.826" width="512" xmlns="http://www.w3.org/2000/svg"><path d="m100.889 195.462c1.129 9.987-.647 20.093-5.194 29.052l-25.917 51.064c-3.871 7.627.879 16.799 9.353 18.058l33.702 5.009c20.836 5.619-11.918 79.035 16.252 95.253 19.352 11.142 50.977 6.201 68.878 9.529 7.458 1.386 12.418 8.494 11.167 15.961l-4.31 55.585c-2.326 29.026 35.034-5.762 88.529 19.969 15.206 7.314 32.232-7.875 31.315-24.758-1.133-20.872-2.041-49.02.52-59.093 64.641-45.38 192.084-318.857 7.046-398.72-82.52-35.616-252.057-.14-231.341 183.091z" fill="#ffd3be"/><path d="m365.078 193.016s17.005 82.885-7.063 92.524c-22.361 8.956-7.271-36.952-23.259-36.037-41.859 2.398-74.375-17.437-65.52-46.089 7.669-24.815 81.166-23.249 81.166-23.249z" fill="#c4619f"/><path d="m192.832 163.335c-33.628-7.472-52.199-41.897-38.672-72.043 10.979-24.468 36.586-48.481 93.11-55.953 127.847-16.899 176.051 124.258 141.469 165.015-25.735 30.331-66.56 21.023-85.762 14.276-6.396-2.247-10.647-8.018-10.647-14.488 0-8.61-6.249-16.088-15.087-18.051z" fill="#ff5a7f"/><path d="m154.16 117.833c9.762-21.756 31.088-43.152 75.431-52.88 5.528-1.213 10.089-13.748 26.786-15.047 18.281-1.423 25.464 11.129 30.967 11.898 42.697 5.966 73.321 31.402 91.689 61.155 2.512 4.07 1.77 10.917 3.823 15.109 2.22 4.532 7.196 6.418 8.878 10.999 3.418 9.309 5.724 18.619 6.915 27.518 8.711-55.203-42.396-155.651-151.379-141.245-56.525 7.472-82.131 31.485-93.11 55.953-5.042 11.236-5.619 23.065-2.625 33.873.681-2.461 1.538-4.911 2.625-7.333z" fill="#ff8595"/><ellipse cx="366.848" cy="125.099" fill="#ff8595" rx="5.578" ry="8.309" transform="matrix(.735 -.678 .678 .735 12.398 281.918)"/><g fill="#846069"><path d="m187.066 101.926c-5.741 0-9.576-5.85-7.396-11.11.354-.857 8.983-21.012 34.171-22.791 4.417-.319 8.232 3.01 8.544 7.416.311 4.408-3.01 8.233-7.417 8.544-15.101 1.067-20.335 12.546-20.55 13.035-1.273 3.071-4.228 4.906-7.352 4.906z"/><path d="m192.841 143.375c-5.159 0-8.961-4.802-7.8-9.808 2.18-9.407 12.765-26.463 37.184-23.693 4.391.498 7.546 4.461 7.048 8.851-.499 4.389-4.475 7.539-8.851 7.047-7.21-.82-12.528.847-16.255 5.091-2.654 3.024-3.532 6.285-3.54 6.315-.857 3.697-4.148 6.197-7.786 6.197z"/><path d="m358.638 198.83c-2.094 0-4.184-.816-5.754-2.44-15.167-15.695-9.413-36.466-4.251-45.256 2.237-3.81 7.139-5.087 10.949-2.847 3.798 2.23 5.076 7.107 2.87 10.912-.08.142-2.382 4.271-3.137 9.685-.913 6.549.746 11.91 5.074 16.388 4.89 5.058 1.276 13.558-5.751 13.558z"/><path d="m319.335 195.546c-4.255 0-7.795-3.351-7.986-7.644-.196-4.414 3.223-8.151 7.636-8.348 19.552-.871 26.389-12.404 25.427-10.968l13.334 8.843c-6.687 10.093-23.653 18.117-38.411 18.117z"/><path d="m256.637 124.788c-3.667.002-6.973-2.538-7.802-6.266-.959-4.313 1.761-8.586 6.073-9.545 1.557-.382 15.888-4.446 15.205-23.455-.786-21.93 19.062-32.089 29.666-34.396 4.321-.938 8.578 1.798 9.519 6.116.937 4.306-1.784 8.556-6.082 9.511-.791.182-17.614 4.22-17.112 18.196 1.027 28.614-22.065 39.835-29.467 39.839z"/><path d="m349.13 119.804c-2.866 0-5.637-1.543-7.073-4.251-7.156-13.485-19.722-23.255-19.849-23.353-3.496-2.692-4.156-7.712-1.47-11.213 2.688-3.501 7.696-4.167 11.201-1.488.625.479 15.416 11.905 24.25 28.553 2.837 5.346-1.077 11.752-7.059 11.752z"/><path d="m287.352 140.183c-8.1 0-11.052-10.695-4.131-14.857.879-.528 21.789-12.828 43.699-2.116 3.97 1.94 5.614 6.731 3.674 10.701s-6.732 5.613-10.701 3.673c-13.957-6.823-28.284 1.37-28.426 1.454-1.291.776-2.712 1.145-4.115 1.145z"/><path d="m311.505 163.185c-9.586 0-18.076-19.566-13.936-38.011.97-4.311 5.25-7.021 9.56-6.051 4.303.967 7.011 5.232 6.057 9.535-.844 3.914-1.786 15.258 3.901 20.795 5.136 5.001 1.554 13.732-5.582 13.732z"/><path d="m228.403 149.884c-3.096-3.153-3.05-8.218.103-11.313 3.146-3.088 8.195-3.05 11.293.083.221.219 11.521 11.312 22.763 8.734 4.31-.988 8.6 1.702 9.587 6.008.989 4.306-1.701 8.599-6.007 9.587-13.884 3.185-29.003-4.2-37.739-13.099z"/><path d="m240.889 101.67c-3.888 0-7.298-2.838-7.899-6.8-3.128-20.597 10.985-34.973 11.588-35.575 3.125-3.124 8.19-3.122 11.313.004 3.111 3.114 3.121 8.153.03 11.279-.433.446-8.998 9.48-7.113 21.89.731 4.819-2.99 9.202-7.919 9.202z"/></g></svg>