<?xml version="1.0" encoding="iso-8859-1"?>
<!-- Generator: Adobe Illustrator 19.0.0, SVG Export Plug-In . SVG Version: 6.00 Build 0)  -->
<svg version="1.1" id="Capa_1" xmlns="http://www.w3.org/2000/svg" xmlns:xlink="http://www.w3.org/1999/xlink" x="0px" y="0px"
	 viewBox="0 0 512 512" style="enable-background:new 0 0 512 512;" xml:space="preserve">
<path style="fill:#E1F1FA;" d="M512,256c0,74.399-61.601,135-136,135H121C54.699,391,0,337.299,0,271
	c0-38.401,19.6-74.401,50.799-96.901C72.1,158.8,96.7,151.3,122.5,151.599C129.699,84.099,186.4,31,256,31
	c57.9,0,108.6,36.899,127.2,90.899C454.9,126.4,512,184.6,512,256z"/>
<path style="fill:#BFE1FF;" d="M512,256c0,74.399-61.601,135-136,135H256V31c57.9,0,108.6,36.899,127.2,90.899
	C454.9,126.4,512,184.6,512,256z"/>
<path style="fill:#A7E340;" d="M356.499,305.499l-90-90C263.8,212.5,259.9,211,256,211s-7.8,1.5-10.499,4.499l-90,90
	c-4.501,4.2-5.7,10.501-3.301,16.201c2.4,5.7,7.8,9.3,13.8,9.3h41.7l-26.4,131.999c-0.901,4.501,0.3,9.001,2.999,12.601
	c3.001,3.3,7.2,5.4,11.7,5.4h120c4.501,0,8.699-2.1,11.7-5.4c2.699-3.6,3.9-8.101,2.999-12.601L304.3,331H346
	c6,0,11.4-3.6,13.801-9.3C362.199,316,361,309.699,356.499,305.499z"/>
<path style="fill:#86C42B;" d="M359.801,321.7C357.4,327.4,352,331,346,331h-41.7l26.4,131.999c0.901,4.501-0.3,9.001-2.999,12.601
	c-3.001,3.3-7.2,5.4-11.7,5.4h-60V211c3.9,0,7.8,1.5,10.499,4.499l90,90C361,309.699,362.199,316,359.801,321.7z"/>
<g>
</g>
<g>
</g>
<g>
</g>
<g>
</g>
<g>
</g>
<g>
</g>
<g>
</g>
<g>
</g>
<g>
</g>
<g>
</g>
<g>
</g>
<g>
</g>
<g>
</g>
<g>
</g>
<g>
</g>
</svg>
